<svg viewBox="0 0 512 512" xmlns="http://www.w3.org/2000/svg" xmlns:xlink="http://www.w3.org/1999/xlink"><linearGradient id="a" gradientTransform="matrix(1 0 0 -1 0 -12310)" gradientUnits="userSpaceOnUse" x1="0" x2="512" y1="-12566" y2="-12566"><stop offset="0" stop-color="#00f38d"/><stop offset="1" stop-color="#009eff"/></linearGradient><path d="m512 256c0 141.386719-114.613281 256-256 256s-256-114.613281-256-256 114.613281-256 256-256 256 114.613281 256 256zm0 0" fill="url(#a)"/><g fill="#fff"><path d="m317.589844 168.613281-56.875 70.28125c-1.539063-.246093-3.109375-.375-4.714844-.375-16.5625 0-30.039062 13.476563-30.039062 30.042969 0 16.5625 13.476562 30.039062 30.039062 30.039062 16.566406 0 30.042969-13.476562 30.042969-30.039062 0-3.804688-.71875-7.441406-2.011719-10.792969l56.878906-70.285156zm0 0"/><path d="m377.554688 139.425781 12.566406-15.070312 20.417968 17.027343 19.214844-23.039062-63.878906-53.269531-19.214844 23.039062 20.421875 17.027344-13.023437 15.617187c-24.179688-16.097656-52.511719-26.417968-83.019532-28.992187v-30.765625h-30.078124v30.765625c-90.828126 7.660156-162.402344 84.019531-162.402344 176.796875.003906 97.839844 79.601562 177.4375 177.441406 177.4375s177.4375-79.597656 177.4375-177.4375c0-50.84375-21.5-96.757812-55.882812-129.136719zm-121.554688 276.574219c-81.300781 0-147.4375-66.140625-147.4375-147.4375 0-81.300781 66.136719-147.441406 147.4375-147.441406s147.4375 66.140625 147.4375 147.441406c0 81.296875-66.136719 147.4375-147.4375 147.4375zm0 0"/></g></svg>